<?xml version="1.0" standalone="no"?>
<!DOCTYPE svg PUBLIC "-//W3C//DTD SVG 20010904//EN"
 "http://www.w3.org/TR/2001/REC-SVG-20010904/DTD/svg10.dtd">
<svg version="1.0" xmlns="http://www.w3.org/2000/svg"
 width="512.000000pt" height="512.000000pt" viewBox="0 0 512.000000 512.000000"
 preserveAspectRatio="xMidYMid meet">

<g transform="translate(0.000000,512.000000) scale(0.100000,-0.100000)"
fill="#000000" stroke="none">
<path d="M17 5032 c-16 -17 -17 -203 -17 -2474 0 -2366 1 -2456 18 -2471 17
-16 208 -17 2544 -17 2433 0 2526 1 2541 18 16 17 17 100 17 987 l0 968 -110
168 c-107 162 -110 169 -110 223 0 48 -3 58 -25 72 -41 27 -73 7 -77 -48 l-3
-43 -392 -3 -393 -2 0 35 c0 37 -28 75 -55 75 -33 0 -55 -38 -55 -95 0 -51 -5
-63 -55 -138 l-55 -82 0 667 c0 593 -2 668 -16 682 -12 12 -37 16 -105 16
l-89 0 0 233 c0 194 -3 236 -16 255 -32 46 -94 15 -94 -46 l0 -32 -615 0 -615
0 0 34 c0 42 -24 68 -59 64 -46 -5 -51 -33 -51 -280 l0 -228 -89 0 c-68 0 -93
-4 -105 -16 -14 -13 -16 -64 -16 -400 l0 -384 -315 0 -315 0 0 874 c0 512 -4
885 -9 899 -8 21 -92 57 -613 266 -332 132 -610 241 -619 241 -9 0 -23 -8 -32
-18z m668 -343 l490 -198 3 -860 2 -861 -75 0 -75 0 0 793 c0 684 -2 795 -15
814 -10 14 -126 65 -355 157 -187 75 -345 136 -352 136 -6 0 -20 -7 -30 -17
-17 -15 -18 -96 -18 -2154 0 -1930 2 -2139 16 -2153 13 -13 42 -16 165 -16
l149 0 0 -80 0 -80 -240 0 -240 0 0 2375 0 2375 43 -17 c23 -9 263 -106 532
-214z m235 -874 l0 -75 -275 0 -275 0 0 75 0 75 275 0 275 0 0 -75z m2550 -90
l0 -145 -615 0 -615 0 0 145 0 145 615 0 615 0 0 -145z m-2550 -160 l0 -75
-275 0 -275 0 0 75 0 75 275 0 275 0 0 -75z m2278 -147 c7 -7 12 -40 12 -80
l0 -68 -355 0 -355 0 0 68 c0 40 5 73 12 80 17 17 669 17 686 0z m-2278 -103
l0 -75 -275 0 -275 0 0 75 0 75 275 0 275 0 0 -75z m2450 -260 l0 -95 -515 0
-515 0 0 95 0 95 515 0 515 0 0 -95z m-2450 5 l0 -70 -275 0 -275 0 0 70 0 70
275 0 275 0 0 -70z m0 -230 l0 -60 -147 0 c-122 0 -149 -3 -165 -17 -17 -15
-18 -65 -18 -1165 l0 -1148 -110 0 -110 0 0 1225 0 1225 275 0 275 0 0 -60z
m2290 -38 c0 -26 -5 -53 -12 -60 -17 -17 -669 -17 -686 0 -7 7 -12 34 -12 60
l0 48 355 0 355 0 0 -48z m-1290 -242 l0 -110 -610 0 -610 0 0 110 0 110 610
0 610 0 0 -110z m1450 -110 l0 -100 -515 0 -515 0 0 100 0 100 515 0 515 0 0
-100z m1459 -159 c9 -13 42 -63 74 -112 l57 -89 -556 0 c-306 0 -554 4 -552 8
2 4 32 54 68 110 55 86 69 102 95 105 16 3 203 4 414 3 l384 -1 16 -24z
m-3029 -61 c20 -20 20 -33 20 -961 0 -629 -3 -947 -10 -960 -10 -17 -22 -19
-120 -19 l-110 0 0 224 c0 191 -2 227 -16 240 -13 14 -51 16 -258 16 -175 0
-245 -3 -254 -12 -9 -9 -12 -76 -12 -240 l0 -228 -108 0 c-71 0 -112 4 -120
12 -9 9 -12 237 -12 964 l0 953 22 15 c20 14 83 16 490 16 455 0 469 -1 488
-20z m1398 -42 c20 -20 15 -76 -7 -88 -26 -13 -630 -14 -665 0 -21 8 -26 16
-26 43 0 18 5 38 12 45 17 17 669 17 686 0z m1592 -257 c0 -31 -5 -53 -15 -61
-13 -10 -15 -50 -15 -236 l0 -224 -80 0 -80 0 0 210 c0 222 -6 254 -45 264
-32 8 -55 -3 -66 -31 -5 -13 -9 -119 -9 -234 l0 -209 -80 0 -80 0 0 224 c0
221 0 225 -22 240 -30 21 -44 20 -68 -4 -19 -19 -20 -33 -20 -240 l0 -220 -79
0 -80 0 -3 219 c-3 192 -5 221 -20 238 -12 13 -18 36 -18 66 l0 47 390 0 390
0 0 -49z m-1420 -91 l0 -100 -515 0 -515 0 0 100 0 100 515 0 515 0 0 -100z
m0 -615 l0 -95 -515 0 -515 0 0 95 0 95 515 0 515 0 0 -95z m-570 -795 l0
-240 -105 0 -105 0 0 240 0 240 105 0 105 0 0 -240z m320 0 l0 -240 -105 0
-105 0 0 240 0 240 105 0 105 0 0 -240z m1448 -2 l2 -238 -165 0 -165 0 0 240
0 240 163 -2 162 -3 3 -237z m-3153 -3 l0 -180 -107 -3 -108 -3 0 186 0 186
108 -3 107 -3 0 -180z"/>
<path d="M867 2172 c-15 -17 -17 -75 -17 -631 0 -403 4 -619 10 -632 10 -18
26 -19 445 -19 381 0 435 2 449 16 14 14 16 85 16 634 l0 619 -22 15 c-19 14
-79 16 -444 16 -395 0 -422 -1 -437 -18z m793 -632 l0 -540 -350 0 -350 0 0
540 0 540 350 0 350 0 0 -540z"/>
<path d="M1148 1919 c-22 -13 -24 -62 -2 -83 23 -23 289 -23 322 0 27 18 29
55 4 77 -16 14 -42 17 -163 17 -79 0 -152 -5 -161 -11z"/>
<path d="M1152 1684 c-24 -17 -30 -62 -10 -82 8 -8 59 -12 163 -12 134 0 154
2 168 18 22 25 21 48 -3 72 -18 18 -33 20 -158 20 -108 0 -142 -3 -160 -16z"/>
<path d="M1141 1446 c-20 -24 -9 -69 19 -83 30 -15 256 -18 294 -3 30 11 42
49 26 79 -10 20 -19 21 -169 21 -126 0 -161 -3 -170 -14z"/>
<path d="M1147 1212 c-23 -25 -22 -69 2 -82 11 -5 84 -10 164 -10 127 0 146 2
160 18 23 26 21 58 -5 76 -18 13 -52 16 -164 16 -124 0 -143 -2 -157 -18z"/>
<path d="M1141 847 c-6 -8 -8 -22 -5 -31 6 -15 26 -16 173 -14 l166 3 0 25 0
25 -161 3 c-128 2 -164 0 -173 -11z"/>
</g>
</svg>
